PathFileType	4	(X/Y/Z)	./trials/Ivanov/data/jump_js_1.trc
DataRate	CameraRate	NumFrames	NumMarkers	Units	OrigDataRate	OrigDataStartFrame	OrigNumFrames
400	400	5	71	mm	400	1	285
Frame#	Time	r_illiac			r_troch			r_asis			l_illiac			l_troch			l_asis			r_psis			sacrum			l_psis			r_thigh1			r_thigh2			r_thigh3			r_thigh4			rl_knee			rm_knee			r_shank1			r_shank2			r_shank3			r_shank4			r_heel			rl_ankle			rm_ankle			r_metatarsal5			r_metatarsal1			l_thigh1			l_thigh2			l_thigh3			l_thigh4			ll_knee			lm_knee			l_shank1			l_shank2			l_shank3			l_shank4			l_heel			ll_ankle			lm_ankle			l_metatarsal5			l_metatarsal1			back_down			neck			back_right			back_left			head_up			head_front			head_left			head_right			r_shoulder			r_humerus1			r_humerus2			r_humerus3			rl_elbow			rm_elbow			r_radius1			r_radius2			r_radius3			rl_wrist			rm_wrist			r_hand			l_shoulder			l_humerus1			l_humerus2			l_humerus3			ll_elbow			lm_elbow			l_radius1			l_radius2			l_radius3			ll_wrist			lm_wrist			l_hand		
		X1	Y1	Z1	X2	Y2	Z2	X3	Y3	Z3	X4	Y4	Z4	X5	Y5	Z5	X6	Y6	Z6	X7	Y7	Z7	X8	Y8	Z8	X9	Y9	Z9	X10	Y10	Z10	X11	Y11	Z11	X12	Y12	Z12	X13	Y13	Z13	X14	Y14	Z14	X15	Y15	Z15	X16	Y16	Z16	X17	Y17	Z17	X18	Y18	Z18	X19	Y19	Z19	X20	Y20	Z20	X21	Y21	Z21	X22	Y22	Z22	X23	Y23	Z23	X24	Y24	Z24	X25	Y25	Z25	X26	Y26	Z26	X27	Y27	Z27	X28	Y28	Z28	X29	Y29	Z29	X30	Y30	Z30	X31	Y31	Z31	X32	Y32	Z32	X33	Y33	Z33	X34	Y34	Z34	X35	Y35	Z35	X36	Y36	Z36	X37	Y37	Z37	X38	Y38	Z38	X39	Y39	Z39	X40	Y40	Z40	X41	Y41	Z41	X42	Y42	Z42	X43	Y43	Z43	X44	Y44	Z44	X45	Y45	Z45	X46	Y46	Z46	X47	Y47	Z47	X48	Y48	Z48	X49	Y49	Z49	X50	Y50	Z50	X51	Y51	Z51	X52	Y52	Z52	X53	Y53	Z53	X54	Y54	Z54	X55	Y55	Z55	X56	Y56	Z56	X57	Y57	Z57	X58	Y58	Z58	X59	Y59	Z59	X60	Y60	Z60	X61	Y61	Z61	X62	Y62	Z62	X63	Y63	Z63	X64	Y64	Z64	X65	Y65	Z65	X66	Y66	Z66	X67	Y67	Z67	X68	Y68	Z68	X69	Y69	Z69	X70	Y70	Z70	X71	Y71	Z71
1	0.0000	-474.235	707.519	572.104	-505.913	586.405	627.153	-442.299	652.050	543.623	-467.897	707.287	225.638	-549.282	604.968	181.443	-444.395	647.851	264.052	-586.020	746.059	451.332	-559.724	768.164	404.169	-592.429	743.860	355.339	-407.805	536.602	621.230	-384.268	607.967	599.264	-267.427	562.691	617.396	-287.461	510.774	635.195	-161.425	448.705	627.065	-149.420	450.695	481.973	-221.208	364.472	640.437	-158.774	336.741	613.748	-214.656	243.035	595.843	-266.858	266.608	626.171	-449.267	42.554	537.785	-365.757	91.097	587.040	-346.337	106.343	480.228	-232.402	39.713	600.425	-209.827	57.350	512.655	-440.778	561.972	174.770	-412.483	619.012	200.395	-300.516	573.700	174.193	-329.344	513.948	153.673	-189.226	454.659	145.041	-166.798	429.132	277.764	-259.286	388.092	139.531	-197.000	355.875	143.787	-246.542	264.005	156.111	-302.019	285.551	151.311	-454.559	50.978	238.900	-370.748	85.224	190.212	-347.380	99.825	297.747	-239.310	38.230	167.204	-211.833	50.075	261.931	-445.567	853.919	396.840	-178.467	1026.926	377.080	-296.005	961.300	496.702	-292.132	945.367	263.795	-2.764	1221.698	381.530	111.355	1122.291	377.881	4.904	1124.807	282.146	1.070	1135.188	474.670	-72.693	948.985	567.691	-156.507	798.104	654.375	-148.839	898.717	737.712	-200.887	808.688	749.129	-277.236	752.563	801.699	-336.364	842.118	806.129	-340.617	716.631	695.093	-375.982	686.383	807.717	-420.870	667.163	716.835	-516.144	705.434	661.847	-495.524	622.388	706.815	-477.707	662.556	641.073	-81.336	951.229	198.062	-148.792	786.772	130.131	-137.658	883.503	41.833	-188.424	795.965	35.107	-279.012	742.832	-45.068	-316.886	832.461	-36.693	-349.618	730.312	94.022	-391.988	652.748	-2.910	-432.726	668.024	89.574	-500.109	716.927	132.637	-476.699	635.121	95.714	-475.765	664.502	155.817
2	0.0025	-474.254	707.469	572.115	-505.953	586.406	627.198	-442.256	652.066	543.638	-467.946	707.217	225.654	-549.284	604.910	181.447	-444.528	647.665	264.206	-586.049	746.021	451.350	-559.728	768.141	404.156	-592.444	743.819	355.343	-407.760	536.554	621.245	-384.225	607.857	599.177	-267.410	562.676	617.364	-287.442	510.719	635.163	-161.413	448.682	627.019	-149.359	450.701	481.942	-221.189	364.448	640.408	-158.790	336.692	613.693	-214.639	243.048	595.814	-266.913	266.528	626.133	-449.261	42.543	537.780	-365.750	91.105	587.037	-346.327	106.325	480.220	-232.408	39.714	600.426	-209.844	57.350	512.671	-440.720	561.974	174.754	-412.477	619.001	200.381	-300.802	573.486	174.345	-329.337	513.882	153.675	-189.250	454.632	145.049	-166.824	429.099	277.775	-259.268	388.072	139.546	-197.035	355.820	143.802	-246.548	263.982	156.116	-302.032	285.535	151.359	-454.541	51.001	238.906	-370.749	85.229	190.198	-347.360	99.770	297.742	-239.320	38.239	167.212	-211.837	50.070	261.956	-445.577	853.889	396.841	-178.604	1027.279	377.334	-295.987	961.280	496.703	-292.120	945.343	263.782	-2.756	1221.641	381.524	111.382	1122.233	377.895	4.915	1124.736	282.147	1.065	1135.147	474.689	-72.685	948.942	567.696	-156.487	798.083	654.361	-148.786	898.656	737.708	-200.875	808.605	749.097	-277.208	752.507	801.675	-336.340	842.050	806.128	-340.618	716.599	695.087	-375.939	686.352	807.706	-420.864	667.160	716.831	-516.137	705.393	661.843	-495.553	622.376	706.839	-477.692	662.557	641.072	-81.332	951.210	198.082	-148.764	786.768	130.143	-137.648	883.496	41.858	-188.411	795.956	35.130	-279.031	742.809	-45.056	-316.891	832.465	-36.650	-349.598	730.270	94.036	-391.992	652.717	-2.913	-432.708	667.997	89.547	-500.098	716.891	132.637	-476.715	635.123	95.707	-475.771	664.471	155.824
3	0.0050	-474.269	707.431	572.133	-505.888	586.350	627.153	-442.322	651.950	543.589	-467.988	707.184	225.648	-549.285	604.906	181.449	-444.520	647.643	264.200	-586.046	745.992	451.343	-559.725	768.041	404.140	-592.459	743.785	355.346	-407.753	536.539	621.250	-384.262	607.968	599.266	-267.391	562.672	617.337	-287.444	510.679	635.140	-161.398	448.683	626.982	-149.311	450.704	481.903	-221.192	364.414	640.361	-158.755	336.741	613.675	-214.625	243.026	595.789	-266.876	266.528	626.101	-449.279	42.544	537.778	-365.762	91.104	587.017	-346.318	106.325	480.209	-232.407	39.743	600.421	-209.863	57.357	512.669	-440.765	561.902	174.770	-412.473	618.971	200.379	-300.516	573.663	174.205	-329.327	513.876	153.668	-189.225	454.627	145.058	-166.803	429.086	277.779	-259.263	388.057	139.553	-197.022	355.817	143.808	-246.509	263.985	156.134	-302.010	285.536	151.329	-454.543	50.996	238.893	-370.756	85.214	190.226	-347.384	99.794	297.740	-239.328	38.240	167.207	-211.827	50.096	261.965	-445.593	853.822	396.818	-178.597	1027.243	377.359	-295.974	961.245	496.713	-292.098	945.282	263.792	-2.756	1221.576	381.542	111.387	1122.175	377.900	4.925	1124.684	282.164	1.080	1135.092	474.683	-72.634	948.897	567.688	-156.488	798.020	654.324	-148.741	898.585	737.725	-200.834	808.588	749.093	-277.194	752.441	801.662	-336.324	841.985	806.141	-340.601	716.570	695.087	-375.908	686.307	807.691	-420.789	667.120	716.803	-516.103	705.390	661.844	-495.538	622.320	706.847	-477.664	662.512	641.063	-81.327	951.176	198.086	-148.742	786.750	130.143	-137.643	883.486	41.868	-188.422	795.947	35.142	-279.013	742.828	-45.044	-316.893	832.439	-36.643	-349.595	730.275	94.049	-391.973	652.700	-2.892	-432.688	667.952	89.569	-500.102	716.877	132.652	-476.755	635.077	95.710	-475.749	664.445	155.838
4	0.0075	-474.285	707.414	572.137	-505.855	586.333	627.183	-442.299	651.954	543.589	-468.008	707.155	225.653	-549.292	604.818	181.464	-444.518	647.630	264.170	-586.058	745.937	451.350	-559.744	768.020	404.157	-592.463	743.743	355.355	-407.718	536.492	621.229	-384.247	607.742	599.158	-267.365	562.633	617.318	-287.420	510.627	635.110	-161.374	448.684	626.955	-149.307	450.675	481.877	-221.149	364.430	640.343	-158.768	336.656	613.645	-214.636	243.004	595.792	-266.842	266.574	626.096	-449.271	42.532	537.780	-365.758	91.091	587.022	-346.309	106.333	480.194	-232.403	39.735	600.432	-209.841	57.351	512.676	-440.781	561.856	174.775	-412.480	618.946	200.382	-300.787	573.490	174.350	-329.306	513.859	153.676	-189.219	454.613	145.056	-166.802	429.093	277.790	-259.246	388.051	139.547	-196.951	355.860	143.792	-246.533	263.971	156.138	-302.002	285.522	151.347	-454.555	50.977	238.891	-370.744	85.246	190.216	-347.370	99.785	297.750	-239.329	38.254	167.194	-211.839	50.089	261.947	-445.593	853.757	396.842	-178.580	1027.204	377.389	-295.935	961.180	496.723	-292.083	945.252	263.795	-2.760	1221.525	381.548	111.379	1122.110	377.914	4.928	1124.618	282.179	1.069	1135.054	474.697	-72.615	948.852	567.688	-156.497	797.958	654.317	-148.674	898.499	737.707	-200.796	808.508	749.075	-277.159	752.396	801.659	-336.125	842.108	806.260	-340.597	716.552	695.074	-375.872	686.224	807.684	-420.827	667.055	716.823	-516.111	705.341	661.842	-495.539	622.311	706.825	-477.668	662.518	641.062	-81.314	951.157	198.123	-148.701	786.758	130.147	-137.618	883.480	41.872	-188.399	795.931	35.170	-278.999	742.811	-45.030	-316.888	832.435	-36.601	-349.598	730.249	94.051	-391.973	652.710	-2.900	-432.676	667.967	89.575	-500.090	716.815	132.650	-476.694	635.073	95.710	-475.744	664.415	155.834
5	0.0100	-474.306	707.365	572.149	-505.840	586.316	627.155	-442.255	651.983	543.604	-468.039	707.114	225.648	-549.283	604.792	181.498	-444.521	647.636	264.190	-586.066	745.912	451.356	-559.731	767.955	404.139	-592.486	743.703	355.357	-407.719	536.456	621.235	-384.195	607.748	599.145	-267.350	562.609	617.266	-287.387	510.602	635.077	-161.357	448.671	626.911	-149.350	450.618	481.823	-221.115	364.465	640.345	-158.751	336.681	613.619	-214.586	243.047	595.760	-266.851	266.532	626.024	-449.267	42.537	537.788	-365.779	91.116	587.020	-346.329	106.331	480.198	-232.404	39.749	600.413	-209.859	57.355	512.670	-440.763	561.826	174.762	-412.515	618.918	200.391	-300.810	573.423	174.374	-329.337	513.793	153.681	-189.215	454.611	145.048	-166.801	429.078	277.800	-259.236	388.036	139.555	-196.987	355.800	143.821	-246.490	263.984	156.125	-302.008	285.487	151.334	-454.539	51.001	238.883	-370.764	85.206	190.218	-347.357	99.810	297.749	-239.325	38.261	167.200	-211.827	50.122	261.940	-445.603	853.730	396.819	-178.410	1026.740	377.157	-295.930	961.142	496.715	-292.002	945.096	263.805	-2.739	1221.460	381.550	111.379	1122.054	377.933	4.937	1124.545	282.191	1.074	1135.006	474.703	-72.573	948.812	567.687	-156.509	797.900	654.297	-148.623	898.445	737.712	-200.796	808.412	749.059	-277.157	752.381	801.654	-336.062	842.101	806.315	-340.567	716.528	695.060	-375.855	686.187	807.668	-420.733	666.957	716.828	-516.084	705.307	661.861	-495.475	622.284	706.806	-477.616	662.473	641.064	-81.279	951.153	198.135	-148.700	786.731	130.149	-137.614	883.473	41.882	-188.408	795.911	35.165	-279.001	742.828	-45.026	-316.879	832.446	-36.575	-349.575	730.235	94.064	-391.949	652.688	-2.911	-432.655	667.944	89.574	-500.061	716.795	132.697	-476.689	635.072	95.718	-475.763	664.381	155.822
